<svg width="40" height="41" viewBox="0 0 40 41" fill="none" xmlns="http://www.w3.org/2000/svg">
<path d="M2.5 36.125C2.5 36.6223 2.69754 37.0992 3.04917 37.4508C3.40081 37.8025 3.87772 38 4.375 38H35.625C36.1223 38 36.5992 37.8025 36.9508 37.4508C37.3025 37.0992 37.5 36.6223 37.5 36.125V14.25H2.5V36.125ZM27.5 17.0625C27.5 16.9796 27.5329 16.9001 27.5915 16.8415C27.6501 16.7829 27.7296 16.75 27.8125 16.75H30.9375C31.0204 16.75 31.0999 16.7829 31.1585 16.8415C31.2171 16.9001 31.25 16.9796 31.25 17.0625V20.1875C31.25 20.2704 31.2171 20.3499 31.1585 20.4085C31.0999 20.4671 31.0204 20.5 30.9375 20.5H27.8125C27.7296 20.5 27.6501 20.4671 27.5915 20.4085C27.5329 20.3499 27.5 20.2704 27.5 20.1875V17.0625ZM27.5 23.3125C27.5 23.2296 27.5329 23.1501 27.5915 23.0915C27.6501 23.0329 27.7296 23 27.8125 23H30.9375C31.0204 23 31.0999 23.0329 31.1585 23.0915C31.2171 23.1501 31.25 23.2296 31.25 23.3125V26.4375C31.25 26.5204 31.2171 26.5999 31.1585 26.6585C31.0999 26.7171 31.0204 26.75 30.9375 26.75H27.8125C27.7296 26.75 27.6501 26.7171 27.5915 26.6585C27.5329 26.5999 27.5 26.5204 27.5 26.4375V23.3125ZM21.25 17.0625C21.25 16.9796 21.2829 16.9001 21.3415 16.8415C21.4001 16.7829 21.4796 16.75 21.5625 16.75H24.6875C24.7704 16.75 24.8499 16.7829 24.9085 16.8415C24.9671 16.9001 25 16.9796 25 17.0625V20.1875C25 20.2704 24.9671 20.3499 24.9085 20.4085C24.8499 20.4671 24.7704 20.5 24.6875 20.5H21.5625C21.4796 20.5 21.4001 20.4671 21.3415 20.4085C21.2829 20.3499 21.25 20.2704 21.25 20.1875V17.0625ZM21.25 23.3125C21.25 23.2296 21.2829 23.1501 21.3415 23.0915C21.4001 23.0329 21.4796 23 21.5625 23H24.6875C24.7704 23 24.8499 23.0329 24.9085 23.0915C24.9671 23.1501 25 23.2296 25 23.3125V26.4375C25 26.5204 24.9671 26.5999 24.9085 26.6585C24.8499 26.7171 24.7704 26.75 24.6875 26.75H21.5625C21.4796 26.75 21.4001 26.7171 21.3415 26.6585C21.2829 26.5999 21.25 26.5204 21.25 26.4375V23.3125ZM21.25 29.5625C21.25 29.4796 21.2829 29.4001 21.3415 29.3415C21.4001 29.2829 21.4796 29.25 21.5625 29.25H24.6875C24.7704 29.25 24.8499 29.2829 24.9085 29.3415C24.9671 29.4001 25 29.4796 25 29.5625V32.6875C25 32.7704 24.9671 32.8499 24.9085 32.9085C24.8499 32.9671 24.7704 33 24.6875 33H21.5625C21.4796 33 21.4001 32.9671 21.3415 32.9085C21.2829 32.8499 21.25 32.7704 21.25 32.6875V29.5625ZM15 23.3125C15 23.2296 15.0329 23.1501 15.0915 23.0915C15.1501 23.0329 15.2296 23 15.3125 23H18.4375C18.5204 23 18.5999 23.0329 18.6585 23.0915C18.7171 23.1501 18.75 23.2296 18.75 23.3125V26.4375C18.75 26.5204 18.7171 26.5999 18.6585 26.6585C18.5999 26.7171 18.5204 26.75 18.4375 26.75H15.3125C15.2296 26.75 15.1501 26.7171 15.0915 26.6585C15.0329 26.5999 15 26.5204 15 26.4375V23.3125ZM15 29.5625C15 29.4796 15.0329 29.4001 15.0915 29.3415C15.1501 29.2829 15.2296 29.25 15.3125 29.25H18.4375C18.5204 29.25 18.5999 29.2829 18.6585 29.3415C18.7171 29.4001 18.75 29.4796 18.75 29.5625V32.6875C18.75 32.7704 18.7171 32.8499 18.6585 32.9085C18.5999 32.9671 18.5204 33 18.4375 33H15.3125C15.2296 33 15.1501 32.9671 15.0915 32.9085C15.0329 32.8499 15 32.7704 15 32.6875V29.5625ZM8.75 23.3125C8.75 23.2296 8.78292 23.1501 8.84153 23.0915C8.90013 23.0329 8.97962 23 9.0625 23H12.1875C12.2704 23 12.3499 23.0329 12.4085 23.0915C12.4671 23.1501 12.5 23.2296 12.5 23.3125V26.4375C12.5 26.5204 12.4671 26.5999 12.4085 26.6585C12.3499 26.7171 12.2704 26.75 12.1875 26.75H9.0625C8.97962 26.75 8.90013 26.7171 8.84153 26.6585C8.78292 26.5999 8.75 26.5204 8.75 26.4375V23.3125ZM8.75 29.5625C8.75 29.4796 8.78292 29.4001 8.84153 29.3415C8.90013 29.2829 8.97962 29.25 9.0625 29.25H12.1875C12.2704 29.25 12.3499 29.2829 12.4085 29.3415C12.4671 29.4001 12.5 29.4796 12.5 29.5625V32.6875C12.5 32.7704 12.4671 32.8499 12.4085 32.9085C12.3499 32.9671 12.2704 33 12.1875 33H9.0625C8.97962 33 8.90013 32.9671 8.84153 32.9085C8.78292 32.8499 8.75 32.7704 8.75 32.6875V29.5625ZM35.625 5.5H31.2562V3H27.5062V5.5H12.4937V3H8.74375V5.5H4.375C4.12971 5.49794 3.88643 5.54443 3.65919 5.63681C3.43195 5.72918 3.22523 5.8656 3.05094 6.03822C2.87666 6.21083 2.73825 6.41623 2.64369 6.64257C2.54914 6.86892 2.5003 7.11173 2.5 7.35703V11.75H37.5V7.35703C37.4997 7.11173 37.4509 6.86892 37.3563 6.64257C37.2618 6.41623 37.1233 6.21083 36.9491 6.03822C36.7748 5.8656 36.5681 5.72918 36.3408 5.63681C36.1136 5.54443 35.8703 5.49794 35.625 5.5Z" fill="#05B093"/>
</svg>
