<svg width="122" height="33" viewBox="0 0 122 33" fill="none" xmlns="http://www.w3.org/2000/svg">
<path d="M8.66683 25.264C11.6082 25.264 14.0002 22.872 14.0002 19.9306V6.40396L26.0002 10.7666V20.6733C25.1933 20.1926 24.2727 19.9362 23.3335 19.9306C20.3922 19.9306 18.0002 22.3226 18.0002 25.264C18.0002 28.2053 20.3922 30.5973 23.3335 30.5973C26.2748 30.5973 28.6668 28.2053 28.6668 25.264V9.8333C28.667 9.55974 28.5829 9.29276 28.4259 9.06873C28.2689 8.8447 28.0467 8.6745 27.7895 8.5813L13.1228 3.24796C12.9215 3.17436 12.7054 3.15044 12.4928 3.17824C12.2802 3.20603 12.0775 3.28472 11.9019 3.40762C11.7262 3.53052 11.5828 3.694 11.4839 3.88417C11.3849 4.07435 11.3333 4.28559 11.3335 4.49996V15.34C10.5267 14.8592 9.60601 14.6028 8.66683 14.5973C5.7255 14.5973 3.3335 16.9893 3.3335 19.9306C3.3335 22.872 5.7255 25.264 8.66683 25.264Z" fill="#191919" fill-opacity="0.3"/>
<path opacity="0.75" d="M61.6267 10.476L58.5707 15.644L61.9307 21.5H60.1707L57.2907 16.332H55.7867V21.5H54.2667V10.476H55.7867V15.084H57.3067L60.0267 10.476H61.6267ZM69.7846 13.068V21.5H68.3126V14.268H65.7046L65.4646 17.084C65.3686 18.2253 65.246 19.0787 65.0966 19.644C64.958 20.2093 64.734 20.6467 64.4246 20.956C64.126 21.2547 63.6673 21.5 63.0486 21.692L62.6806 20.524C63.0433 20.396 63.2993 20.2307 63.4486 20.028C63.598 19.8253 63.71 19.516 63.7846 19.1C63.8593 18.684 63.9393 17.9587 64.0246 16.924L64.3606 13.068H69.7846ZM78.5074 19.532C78.5074 19.8733 78.566 20.1293 78.6834 20.3C78.8007 20.46 78.9767 20.5827 79.2114 20.668L78.8754 21.692C78.438 21.6387 78.086 21.516 77.8194 21.324C77.5527 21.132 77.3554 20.8333 77.2274 20.428C76.662 21.2707 75.8247 21.692 74.7154 21.692C73.8834 21.692 73.2274 21.4573 72.7474 20.988C72.2674 20.5187 72.0274 19.9053 72.0274 19.148C72.0274 18.252 72.3474 17.564 72.9874 17.084C73.638 16.604 74.5554 16.364 75.7394 16.364H77.0354V15.74C77.0354 15.1427 76.8914 14.716 76.6034 14.46C76.3154 14.204 75.8727 14.076 75.2754 14.076C74.6567 14.076 73.8994 14.2253 73.0034 14.524L72.6354 13.452C73.6807 13.068 74.6514 12.876 75.5474 12.876C76.5394 12.876 77.2807 13.1213 77.7714 13.612C78.262 14.092 78.5074 14.78 78.5074 15.676V19.532ZM75.0514 20.588C75.894 20.588 76.5554 20.1507 77.0354 19.276V17.34H75.9314C74.374 17.34 73.5954 17.916 73.5954 19.068C73.5954 19.5693 73.718 19.948 73.9634 20.204C74.2087 20.46 74.5714 20.588 75.0514 20.588ZM84.6025 12.876C85.1038 12.876 85.5625 12.9507 85.9785 13.1C86.3945 13.2387 86.7945 13.468 87.1785 13.788L86.4745 14.716C86.1758 14.5027 85.8825 14.348 85.5945 14.252C85.3172 14.1453 85.0078 14.092 84.6665 14.092C83.9838 14.092 83.4505 14.364 83.0665 14.908C82.6932 15.452 82.5065 16.2573 82.5065 17.324C82.5065 18.3907 82.6932 19.18 83.0665 19.692C83.4398 20.1933 83.9732 20.444 84.6665 20.444C84.9972 20.444 85.3012 20.396 85.5785 20.3C85.8558 20.1933 86.1652 20.028 86.5065 19.804L87.1785 20.764C86.4105 21.3827 85.5518 21.692 84.6025 21.692C83.4612 21.692 82.5598 21.308 81.8985 20.54C81.2478 19.772 80.9225 18.7107 80.9225 17.356C80.9225 16.46 81.0718 15.676 81.3705 15.004C81.6692 14.332 82.0905 13.8093 82.6345 13.436C83.1892 13.0627 83.8452 12.876 84.6025 12.876ZM91.9306 12.876C92.432 12.876 92.8906 12.9507 93.3066 13.1C93.7226 13.2387 94.1226 13.468 94.5066 13.788L93.8026 14.716C93.504 14.5027 93.2106 14.348 92.9226 14.252C92.6453 14.1453 92.336 14.092 91.9946 14.092C91.312 14.092 90.7786 14.364 90.3946 14.908C90.0213 15.452 89.8346 16.2573 89.8346 17.324C89.8346 18.3907 90.0213 19.18 90.3946 19.692C90.768 20.1933 91.3013 20.444 91.9946 20.444C92.3253 20.444 92.6293 20.396 92.9066 20.3C93.184 20.1933 93.4933 20.028 93.8346 19.804L94.5066 20.764C93.7386 21.3827 92.88 21.692 91.9306 21.692C90.7893 21.692 89.888 21.308 89.2266 20.54C88.576 19.772 88.2506 18.7107 88.2506 17.356C88.2506 16.46 88.4 15.676 88.6986 15.004C88.9973 14.332 89.4186 13.8093 89.9626 13.436C90.5173 13.0627 91.1733 12.876 91.9306 12.876ZM103.059 21.5H101.603V17.692C101.603 17.052 101.625 16.444 101.667 15.868C101.71 15.292 101.747 14.9133 101.779 14.732L98.2432 21.5H96.4992V13.068H97.9552V16.876C97.9552 17.4413 97.9339 18.028 97.8912 18.636C97.8486 19.2333 97.8166 19.6173 97.7952 19.788L101.283 13.068H103.059V21.5ZM112.413 13.068L109.853 16.972L112.717 21.5H110.973L108.637 17.612H107.565V21.5H106.093V13.068H107.565V16.46H108.669L110.797 13.068H112.413ZM119.835 19.532C119.835 19.8733 119.894 20.1293 120.011 20.3C120.129 20.46 120.305 20.5827 120.539 20.668L120.203 21.692C119.766 21.6387 119.414 21.516 119.147 21.324C118.881 21.132 118.683 20.8333 118.555 20.428C117.99 21.2707 117.153 21.692 116.043 21.692C115.211 21.692 114.555 21.4573 114.075 20.988C113.595 20.5187 113.355 19.9053 113.355 19.148C113.355 18.252 113.675 17.564 114.315 17.084C114.966 16.604 115.883 16.364 117.067 16.364H118.363V15.74C118.363 15.1427 118.219 14.716 117.931 14.46C117.643 14.204 117.201 14.076 116.603 14.076C115.985 14.076 115.227 14.2253 114.331 14.524L113.963 13.452C115.009 13.068 115.979 12.876 116.875 12.876C117.867 12.876 118.609 13.1213 119.099 13.612C119.59 14.092 119.835 14.78 119.835 15.676V19.532ZM116.379 20.588C117.222 20.588 117.883 20.1507 118.363 19.276V17.34H117.259C115.702 17.34 114.923 17.916 114.923 19.068C114.923 19.5693 115.046 19.948 115.291 20.204C115.537 20.46 115.899 20.588 116.379 20.588Z" fill="#191919"/>
</svg>
