<svg width="310" height="32" viewBox="0 0 310 32" fill="none" xmlns="http://www.w3.org/2000/svg">
<path d="M8.66683 24.764C11.6082 24.764 14.0002 22.372 14.0002 19.4306V5.90396L26.0002 10.2666V20.1733C25.1933 19.6926 24.2727 19.4362 23.3335 19.4306C20.3922 19.4306 18.0002 21.8226 18.0002 24.764C18.0002 27.7053 20.3922 30.0973 23.3335 30.0973C26.2748 30.0973 28.6668 27.7053 28.6668 24.764V9.3333C28.667 9.05974 28.5829 8.79276 28.4259 8.56873C28.2689 8.3447 28.0467 8.1745 27.7895 8.0813L13.1228 2.74796C12.9215 2.67436 12.7054 2.65044 12.4928 2.67824C12.2802 2.70603 12.0775 2.78472 11.9019 2.90762C11.7262 3.03052 11.5828 3.194 11.4839 3.38417C11.3849 3.57435 11.3333 3.78559 11.3335 3.99996V14.84C10.5267 14.3592 9.60601 14.1028 8.66683 14.0973C5.7255 14.0973 3.3335 16.4893 3.3335 19.4306C3.3335 22.372 5.7255 24.764 8.66683 24.764Z" fill="#191919" fill-opacity="0.3"/>
<path opacity="0.75" d="M61.7387 19.752V23.4H60.5387L60.2987 21H53.9467L53.7067 23.4H52.5067V19.752H53.2587C53.5467 19.4747 53.7654 19.1227 53.9147 18.696C54.0747 18.2693 54.2081 17.704 54.3147 17C54.4321 16.2853 54.6081 15.0107 54.8427 13.176L55.2427 9.976H60.8427V19.752H61.7387ZM59.3227 11.224H56.5707L56.3467 13.24C56.1547 14.8827 55.9947 16.0827 55.8667 16.84C55.7494 17.5973 55.5894 18.2 55.3867 18.648C55.1947 19.096 54.9121 19.464 54.5387 19.752H59.3227V11.224ZM73.328 12.568L71.216 16.52L73.632 21H72.016L70.016 17.176H68.896V21H67.488V17.176H66.384L64.368 21H62.768L65.184 16.52L63.072 12.568H64.608L66.368 16.024H67.488V12.568H68.896V16.024H70.032L71.808 12.568H73.328ZM80.9136 19.032C80.9136 19.3733 80.9723 19.6293 81.0896 19.8C81.207 19.96 81.383 20.0827 81.6176 20.168L81.2816 21.192C80.8443 21.1387 80.4923 21.016 80.2256 20.824C79.959 20.632 79.7616 20.3333 79.6336 19.928C79.0683 20.7707 78.231 21.192 77.1216 21.192C76.2896 21.192 75.6336 20.9573 75.1536 20.488C74.6736 20.0187 74.4336 19.4053 74.4336 18.648C74.4336 17.752 74.7536 17.064 75.3936 16.584C76.0443 16.104 76.9616 15.864 78.1456 15.864H79.4416V15.24C79.4416 14.6427 79.2976 14.216 79.0096 13.96C78.7216 13.704 78.279 13.576 77.6816 13.576C77.063 13.576 76.3056 13.7253 75.4096 14.024L75.0416 12.952C76.087 12.568 77.0576 12.376 77.9536 12.376C78.9456 12.376 79.687 12.6213 80.1776 13.112C80.6683 13.592 80.9136 14.28 80.9136 15.176V19.032ZM77.4576 20.088C78.3003 20.088 78.9616 19.6507 79.4416 18.776V16.84H78.3376C76.7803 16.84 76.0016 17.416 76.0016 18.568C76.0016 19.0693 76.1243 19.448 76.3696 19.704C76.615 19.96 76.9776 20.088 77.4576 20.088ZM86.0167 12.376C86.5501 12.376 87.0461 12.4667 87.5047 12.648C87.9741 12.8187 88.3474 13.0747 88.6247 13.416C88.9127 13.7573 89.0567 14.168 89.0567 14.648C89.0567 15.1173 88.9181 15.5013 88.6407 15.8C88.3741 16.0987 87.9474 16.328 87.3607 16.488C88.0647 16.6053 88.5981 16.824 88.9607 17.144C89.3234 17.464 89.5047 17.9227 89.5047 18.52C89.5047 19.3947 89.1634 20.0613 88.4807 20.52C87.8087 20.968 86.9501 21.192 85.9047 21.192C84.6354 21.192 83.5527 20.84 82.6567 20.136L83.4247 19.224C83.7981 19.4907 84.1714 19.688 84.5447 19.816C84.9287 19.944 85.3661 20.008 85.8567 20.008C87.2327 20.008 87.9207 19.5067 87.9207 18.504C87.9207 18.0133 87.7234 17.672 87.3287 17.48C86.9447 17.2773 86.4061 17.176 85.7127 17.176H84.5927L84.6887 16.024H85.5527C86.1501 16.024 86.6301 15.9173 86.9927 15.704C87.3554 15.4907 87.5367 15.16 87.5367 14.712C87.5367 14.296 87.3821 13.9973 87.0727 13.816C86.7634 13.624 86.3581 13.528 85.8567 13.528C85.4194 13.528 85.0301 13.5867 84.6887 13.704C84.3581 13.8107 84.0221 13.9813 83.6807 14.216L82.9767 13.336C83.4034 13.016 83.8621 12.776 84.3527 12.616C84.8434 12.456 85.3981 12.376 86.0167 12.376Z" fill="#191919"/>
<g clip-path="url(#clip0_17498_122)">
<path d="M136.667 2.66663C144.031 2.66663 150 8.63596 150 16C150 23.364 144.031 29.3333 136.667 29.3333C129.303 29.3333 123.333 23.364 123.333 16C123.333 8.63596 129.303 2.66663 136.667 2.66663ZM136.667 7.99996C136.313 7.99996 135.974 8.14044 135.724 8.39048C135.474 8.64053 135.333 8.97967 135.333 9.33329V16C135.334 16.3536 135.474 16.6926 135.724 16.9426L139.724 20.9426C139.976 21.1855 140.312 21.3199 140.662 21.3169C141.012 21.3138 141.346 21.1736 141.593 20.9264C141.84 20.6792 141.981 20.3448 141.984 19.9952C141.987 19.6456 141.852 19.3088 141.609 19.0573L138 15.448V9.33329C138 8.97967 137.86 8.64053 137.61 8.39048C137.36 8.14044 137.02 7.99996 136.667 7.99996Z" fill="#191919" fill-opacity="0.3"/>
</g>
<path opacity="0.75" d="M177.835 10.296V21H176.363V11.864L173.867 13.384L173.227 12.344L176.539 10.296H177.835ZM183.733 10.136C184.863 10.136 185.722 10.5093 186.309 11.256C186.895 11.992 187.189 13.0053 187.189 14.296C187.189 15.7573 186.991 16.936 186.597 17.832C186.202 18.7173 185.599 19.4267 184.789 19.96C183.978 20.4827 182.879 20.9467 181.493 21.352L181.157 20.248C182.586 19.8427 183.679 19.2933 184.437 18.6C185.205 17.9067 185.615 16.984 185.669 15.832C185.423 16.216 185.093 16.5253 184.677 16.76C184.261 16.9947 183.791 17.112 183.269 17.112C182.714 17.112 182.213 16.9733 181.765 16.696C181.317 16.408 180.959 16.008 180.693 15.496C180.437 14.9733 180.309 14.3653 180.309 13.672C180.309 12.9467 180.463 12.3173 180.773 11.784C181.082 11.2507 181.493 10.8453 182.005 10.568C182.527 10.28 183.103 10.136 183.733 10.136ZM183.573 15.96C184.415 15.96 185.125 15.5173 185.701 14.632C185.722 13.448 185.573 12.6 185.253 12.088C184.943 11.5653 184.447 11.304 183.765 11.304C183.135 11.304 182.65 11.512 182.309 11.928C181.967 12.344 181.797 12.936 181.797 13.704C181.797 14.4507 181.957 15.016 182.277 15.4C182.597 15.7733 183.029 15.96 183.573 15.96ZM189.899 18.968C190.219 18.968 190.486 19.0747 190.699 19.288C190.912 19.5013 191.019 19.7627 191.019 20.072C191.019 20.3813 190.912 20.648 190.699 20.872C190.486 21.0853 190.219 21.192 189.899 21.192C189.59 21.192 189.328 21.0853 189.115 20.872C188.902 20.648 188.795 20.3813 188.795 20.072C188.795 19.7627 188.902 19.5013 189.115 19.288C189.328 19.0747 189.59 18.968 189.899 18.968ZM189.899 13.08C190.219 13.08 190.486 13.1867 190.699 13.4C190.912 13.6133 191.019 13.8747 191.019 14.184C191.019 14.4933 190.912 14.76 190.699 14.984C190.486 15.1973 190.219 15.304 189.899 15.304C189.59 15.304 189.328 15.1973 189.115 14.984C188.902 14.76 188.795 14.4933 188.795 14.184C188.795 13.8747 188.902 13.6133 189.115 13.4C189.328 13.1867 189.59 13.08 189.899 13.08ZM196.303 10.136C197.487 10.136 198.377 10.6107 198.975 11.56C199.583 12.4987 199.887 13.864 199.887 15.656C199.887 17.448 199.583 18.8187 198.975 19.768C198.377 20.7173 197.487 21.192 196.303 21.192C195.119 21.192 194.223 20.7173 193.615 19.768C193.017 18.8187 192.719 17.448 192.719 15.656C192.719 13.864 193.017 12.4987 193.615 11.56C194.223 10.6107 195.119 10.136 196.303 10.136ZM196.303 11.304C195.609 11.304 195.092 11.6453 194.751 12.328C194.42 13.0107 194.255 14.12 194.255 15.656C194.255 17.192 194.42 18.3067 194.751 19C195.092 19.6827 195.609 20.024 196.303 20.024C196.985 20.024 197.497 19.6827 197.839 19C198.18 18.3067 198.351 17.192 198.351 15.656C198.351 14.1307 198.18 13.0267 197.839 12.344C197.497 11.6507 196.985 11.304 196.303 11.304ZM205.224 10.136C206.408 10.136 207.299 10.6107 207.896 11.56C208.504 12.4987 208.808 13.864 208.808 15.656C208.808 17.448 208.504 18.8187 207.896 19.768C207.299 20.7173 206.408 21.192 205.224 21.192C204.04 21.192 203.144 20.7173 202.536 19.768C201.939 18.8187 201.64 17.448 201.64 15.656C201.64 13.864 201.939 12.4987 202.536 11.56C203.144 10.6107 204.04 10.136 205.224 10.136ZM205.224 11.304C204.531 11.304 204.014 11.6453 203.672 12.328C203.342 13.0107 203.176 14.12 203.176 15.656C203.176 17.192 203.342 18.3067 203.672 19C204.014 19.6827 204.531 20.024 205.224 20.024C205.907 20.024 206.419 19.6827 206.76 19C207.102 18.3067 207.272 17.192 207.272 15.656C207.272 14.1307 207.102 13.0267 206.76 12.344C206.419 11.6507 205.907 11.304 205.224 11.304Z" fill="#191919"/>
<path d="M261.457 4.03625C260.241 2.72313 258.542 2 256.667 2C254.782 2 253.077 2.71875 251.867 4.02375C250.643 5.34312 250.047 7.13625 250.187 9.0725C250.464 12.8925 253.371 16 256.667 16C259.962 16 262.864 12.8931 263.146 9.07375C263.288 7.155 262.688 5.36563 261.457 4.03625ZM267.667 30H245.667C245.379 30.0037 245.094 29.9433 244.832 29.8229C244.57 29.7026 244.339 29.5254 244.154 29.3044C243.748 28.8188 243.584 28.1556 243.706 27.485C244.233 24.5588 245.879 22.1006 248.467 20.375C250.766 18.8431 253.677 18 256.667 18C259.656 18 262.568 18.8438 264.867 20.375C267.454 22.1 269.101 24.5581 269.628 27.4844C269.749 28.155 269.586 28.8181 269.179 29.3037C268.995 29.5249 268.763 29.7022 268.502 29.8226C268.24 29.9431 267.955 30.0037 267.667 30Z" fill="#191919" fill-opacity="0.3"/>
<path opacity="0.75" d="M297.595 13.96C298.139 13.96 298.635 14.088 299.083 14.344C299.531 14.6 299.888 14.984 300.155 15.496C300.421 16.008 300.555 16.632 300.555 17.368C300.555 18.1253 300.4 18.7973 300.091 19.384C299.792 19.96 299.381 20.408 298.859 20.728C298.347 21.0373 297.776 21.192 297.147 21.192C295.899 21.192 294.987 20.7333 294.411 19.816C293.835 18.888 293.547 17.608 293.547 15.976C293.547 14.8133 293.707 13.7947 294.027 12.92C294.357 12.0347 294.827 11.352 295.435 10.872C296.043 10.3813 296.763 10.136 297.595 10.136C298.405 10.136 299.141 10.3547 299.803 10.792L299.227 11.768C298.725 11.4587 298.176 11.304 297.579 11.304C296.811 11.304 296.203 11.672 295.755 12.408C295.307 13.144 295.061 14.1307 295.019 15.368C295.68 14.4293 296.539 13.96 297.595 13.96ZM297.147 20.024C297.765 20.024 298.24 19.7893 298.571 19.32C298.901 18.8507 299.067 18.216 299.067 17.416C299.067 15.8907 298.491 15.128 297.339 15.128C296.869 15.128 296.437 15.2613 296.043 15.528C295.648 15.784 295.312 16.1413 295.035 16.6C295.067 17.7733 295.248 18.6373 295.579 19.192C295.92 19.7467 296.443 20.024 297.147 20.024ZM305.854 12.696V15.096H308.19V16.312H305.854V18.696H304.51V16.312H302.19V15.096H304.51V12.696H305.854Z" fill="#191919"/>
<defs>
<clipPath id="clip0_17498_122">
<rect width="32" height="32" fill="white" transform="translate(120.667)"/>
</clipPath>
</defs>
</svg>
